<?xml version="1.0" encoding="UTF-8"?>
<!DOCTYPE svg PUBLIC "-//W3C//DTD SVG 1.1//EN" "http://www.w3.org/Graphics/SVG/1.1/DTD/svg11.dtd">
<svg xmlns="http://www.w3.org/2000/svg" version="1.1" width="1600px" height="1600px" style="shape-rendering:geometricPrecision; text-rendering:geometricPrecision; image-rendering:optimizeQuality; fill-rule:evenodd; clip-rule:evenodd" xmlns:xlink="http://www.w3.org/1999/xlink">
<g><path style="opacity:0.987" fill="#000000" d="M 771.5,62.5 C 1001.1,60.9214 1192.27,144.921 1345,314.5C 1473.34,466.175 1532.34,641.841 1522,841.5C 1505.67,1040.33 1424.17,1206.49 1277.5,1340C 1105.27,1487.16 906.274,1545.5 680.5,1515C 504.902,1485.14 358.402,1403.98 241,1271.5C 110.629,1116.71 51.962,937.71 65,734.5C 84.0258,537.944 166.526,374.111 312.5,243C 444.277,130.156 597.277,69.989 771.5,62.5 Z M 778.5,126.5 C 958.557,125.547 1114.89,185.047 1247.5,305C 1385.68,437.902 1456.35,600.735 1459.5,793.5C 1456.22,988.171 1384.22,1152 1243.5,1285C 1095.55,1415.87 922.553,1472.87 724.5,1456C 553.474,1436.08 410.307,1362.91 295,1236.5C 169.211,1090.45 114.211,920.783 130,727.5C 149.486,552.264 224.653,406.431 355.5,290C 477.113,186.571 618.113,132.071 778.5,126.5 Z"/></g>
</svg>
